<svg width="5242" height="1102" viewBox="0 0 5242 1102" fill="none" xmlns="http://www.w3.org/2000/svg">
<path fill-rule="evenodd" clip-rule="evenodd" d="M3717.86 378.49H3493.64V835.356C3493.64 876.94 3501.51 906.723 3517.24 924.706C3534.1 941.564 3559.39 950.555 3593.1 951.679C3626.82 951.679 3668.41 950.555 3717.86 948.307V1079.8C3589.73 1096.66 3495.89 1086.55 3436.32 1049.46C3376.75 1011.25 3346.97 939.878 3346.97 835.356V378.49H3180.07V236.879H3346.97V44.692L3493.64 0.859863V236.879H3717.86V378.49ZM1806.35 725.775C1820.97 801.077 1855.24 859.519 1909.19 901.104C1964.26 942.688 2031.7 963.48 2111.49 963.48C2222.76 963.48 2303.68 922.458 2354.26 840.413L2479.01 911.219C2396.96 1038.22 2273.33 1101.72 2108.12 1101.72C1974.38 1101.72 1865.36 1060.14 1781.07 976.967C1697.9 892.674 1656.31 786.466 1656.31 658.341C1656.31 531.341 1697.34 425.694 1779.38 341.402C1861.43 257.109 1967.63 214.963 2098.01 214.963C2221.64 214.963 2322.22 258.795 2399.77 346.459C2478.45 432.999 2517.78 537.522 2517.78 660.027C2517.78 681.381 2516.1 703.297 2512.73 725.775H1806.35ZM2098.01 353.202C2019.33 353.202 1954.15 375.68 1902.45 420.636C1850.75 464.469 1818.72 523.473 1806.35 597.651H2369.43C2357.06 517.854 2325.6 457.163 2275.02 415.579C2224.44 373.995 2165.44 353.202 2098.01 353.202ZM1453.93 236.879H1612.4L1275.23 1079.8H1103.28L766.106 236.879H924.576L1189.25 923.02L1453.93 236.879ZM3096.04 221.706C2969.04 221.706 2881.38 273.968 2833.05 378.49V236.879H2686.38V1079.8H2833.05V633.054C2833.05 540.894 2858.9 474.022 2910.6 432.437C2962.3 390.853 3024.11 371.747 3096.04 375.119V221.706ZM4054.37 901.104C4000.42 859.519 3966.14 801.077 3951.53 725.775H4657.9C4661.27 703.297 4662.96 681.381 4662.96 660.027C4662.96 537.522 4623.62 432.999 4544.95 346.459C4467.4 258.795 4366.81 214.963 4243.18 214.963C4112.81 214.963 4006.6 257.109 3924.56 341.402C3842.51 425.694 3801.49 531.341 3801.49 658.341C3801.49 786.466 3843.07 892.674 3926.24 976.967C4010.54 1060.14 4119.55 1101.72 4253.3 1101.72C4418.51 1101.72 4542.14 1038.22 4624.19 911.219L4499.43 840.413C4448.86 922.458 4367.94 963.48 4256.67 963.48C4176.87 963.48 4109.44 942.688 4054.37 901.104ZM4047.62 420.636C4099.32 375.68 4164.51 353.202 4243.18 353.202C4310.62 353.202 4369.62 373.995 4420.2 415.579C4470.77 457.163 4502.24 517.854 4514.6 597.651H3951.53C3963.89 523.473 3995.93 464.469 4047.62 420.636ZM4978.23 378.49C5026.55 273.968 5114.22 221.706 5241.22 221.706V375.119C5169.29 371.747 5107.48 390.853 5055.78 432.437C5004.08 474.022 4978.23 540.894 4978.23 633.054V1079.8H4831.56V236.879H4978.23V378.49ZM25.769 526.519H172.202V806.36L564.5 236.497H673.888V1079.52H531.455V512.36L140 1079.52H25.769V526.519ZM32.8431 376.643C51.4052 395.205 74.3348 404.486 101.632 404.486C127.837 404.486 150.221 395.205 168.783 376.643C187.345 358.081 196.626 335.697 196.626 309.492C196.626 283.286 187.345 260.903 168.783 242.341C150.221 222.687 127.837 212.86 101.632 212.86C74.3348 212.86 51.4052 222.687 32.8431 242.341C14.281 260.903 5 283.286 5 309.492C5 335.697 14.281 358.081 32.8431 376.643Z" fill="#E1DFDC"/>
</svg>
